# xmcd
#
# Track frame offsets:
#	150
#	32180
#	51754
#	83367
#	123388
#	146294
#	183712
#	216932
#	235873
#	254516
#	270566
#	291166
#
# Disc length: 4239 seconds
# Revision: 0
# Processed by: cddbd v1.5.2PL0 Copyright (c) Steve Scherf et al.
# Submitted via: dBpowerAMP V12.0
#
DISCID=ae108d0c
DTITLE=Eric Clapton - Never Hide - 2008 Nottingham, Disc 1
DYEAR=2008
DGENRE=Blues
TTITLE0=Tell The Truth
TTITLE1=Key To The Highway
TTITLE2=Hoochie Coochie Man
TTITLE3=Here But I Am Gone
TTITLE4=Outside Woman Blues
TTITLE5=Double Trouble
TTITLE6=Why Does Love Got To Be So Sad
TTITLE7=Midnight Hour Blues
TTITLE8=Rockin' Chair
TTITLE9=Motherless Child
TTITLE10=Travelling Riverside Blues
TTITLE11=Running On Faith
EXTD=
EXTT0=
EXTT1=
EXTT2=
EXTT3=
EXTT4=
EXTT5=
EXTT6=
EXTT7=
EXTT8=
EXTT9=
EXTT10=
EXTT11=
PLAYORDER=
